<svg xmlns="http://www.w3.org/2000/svg" xmlns:xlink="http://www.w3.org/1999/xlink" width="921" height="798.79" data-name="Layer 1" viewBox="0 0 921 798.79"><defs><linearGradient id="a" x1="460.5" x2="460.5" y1="798.79" y2="347.79" gradientUnits="userSpaceOnUse"><stop offset="0" stop-color="gray" stop-opacity=".25"/><stop offset=".54" stop-color="gray" stop-opacity=".12"/><stop offset="1" stop-color="gray" stop-opacity=".1"/></linearGradient><linearGradient id="b" x1="465.42" x2="465.42" y1="671.63" y2="96.38" xlink:href="#a"/><linearGradient id="e" x1="698.5" x2="941.5" y1="638.79" y2="638.79" xlink:href="#a"/><clipPath id="c" transform="translate(-139.5 -19.25)"><path fill="#f3ad55" d="M280.75 153.83s73-26.94 116.73 58.36 75.2 149.29 133.52 185.2c0 0 37-19.08 41.53 20.2l80.81-6.73s19.43 4.25 37.75 36.42a142.3 142.3 0 0118.37 70.44v28.95l25.82 16.84s18 29.18 0 52.75S542.27 632 542.27 632s14.59 41.53-88.67 23.57-120.1-21.35-189.69-178.48c0 0 5.61 76.32 15.71 98.77s-6.73 68.47-62.85 22.45c-43.3-35.52-48.51-148.57-48.63-198.31a281.61 281.61 0 00-4.88-51.67C147.61 265.6 194.48 183.16 274.13 156q3.25-1.15 6.62-2.17z" data-name="&lt;Clipping Path&gt;"/></clipPath><clipPath id="d" transform="translate(-139.5 -19.25)"><path fill="#f3ad55" d="M226.52 181.35s-1.14-84.35 35.9-91.87 39.28-19.08 78.57 21c7 7.14 13.17 13 18.59 17.91a66.6 66.6 0 0063.72 14.26s-73 153.9-138.84 11z" data-name="&lt;Clipping Path&gt;"/></clipPath></defs><ellipse cx="460.5" cy="573.29" fill="url(#a)" rx="460.5" ry="225.5" opacity=".7"/><ellipse cx="460.5" cy="573.29" fill="#6574cd" rx="440.57" ry="215.74"/><path fill="url(#b)" d="M746.19 574.63s-.71-.11-1.95-.22l-10.47-6.83-1.67-1.14h.06L730 565l-9.48-6.49v-28.86a143.52 143.52 0 00-2.17-24.88l-.19.07a140 140 0 00-11.62-36.35l.05.06c20.88-24 21.56-65.73 21.56-65.73l-62 21.38a16 16 0 00-1.7-.53l-80.35 6.7-.81-5.58-.18.1c-7.21-31.65-40.39-14.56-40.39-14.56-58.08-35.74-89.35-99.4-132.91-184.29a158.11 158.11 0 00-9.52-16.17c21.22-20.65 35.2-49.73 35.2-49.73l-2 .61c1.33-2.5 2-4 2-4a66.28 66.28 0 01-63.41-14.19c-5.39-4.85-11.53-10.72-18.49-17.82-39.09-39.84-41.32-28.29-78.18-20.85s-35.72 89.43-35.72 89.43v2.16a169.34 169.34 0 00-63 165.72L182 389s-7.82 175.35 48 221.14 72.6 0 62.55-22.34-15.64-98.29-15.64-98.29c69.25 156.36 86 159.72 188.75 177.59s88.24-23.4 88.24-23.4 156.17 7 188-12.15l.23.05s30.87-18.99 4.06-56.97z" transform="translate(-139.5 -19.25)" opacity=".5"/><path fill="#f3ad55" d="M141.25 134.58s73-26.94 116.73 58.36 75.2 149.29 133.52 185.2c0 0 37-19.08 41.53 20.2l80.81-6.73s19.43 4.25 37.75 36.42a142.3 142.3 0 0118.37 70.44v28.95l25.82 16.84s18 29.18 0 52.75-193.01 15.74-193.01 15.74 14.59 41.53-88.67 23.57S194 614.97 124.41 457.84c0 0 5.61 76.32 15.71 98.77s-6.73 68.47-62.85 22.45c-43.3-35.52-48.51-148.57-48.63-198.31a281.61 281.61 0 00-4.88-51.67C8.11 246.35 54.98 163.91 134.63 136.75q3.25-1.15 6.62-2.17z" data-name="&lt;Clipping Path&gt;"/><g clip-path="url(#c)" fill="#fbdca3"><path d="M144.43 614.04L55.01 587.1s56.49-58.35 99.49-32.55-10.07 59.49-10.07 59.49zM312.42 648.46S333 568.4 414.93 618.53s-102.51 29.93-102.51 29.93z"/></g><path fill="#795548" d="M411 480.66s-77.07-2.17 21.14-87.88z"/><path fill="#fbdca3" d="M513.89 392.75l64-22.07s-60.26 28.07-56.15 36.65z"/><path fill="#ef8343" d="M556.2 436.75s-27.91-31.45-36.89-31.07c0 0 13.28-16.27 58.55-35 0-.02-.68 41.92-21.66 66.07z"/><path d="M87.02 165.47s-1.15-84.39 35.89-91.87 39.28-19.08 78.57 21 52.38 41.15 52.38 41.15l29.93-9s-73 153.9-138.84 11z" opacity=".1"/><path fill="#f3ad55" d="M87.02 162.1s-1.14-84.35 35.9-91.87 39.28-19.08 78.57 21c7 7.14 13.17 13 18.59 17.91a66.6 66.6 0 0063.72 14.26s-73 153.9-138.84 11z" data-name="&lt;Clipping Path&gt;"/><g clip-path="url(#d)"><path fill="#fbdca3" d="M65.6 122.36a322.3 322.3 0 0074.07-26.28c5.78-2.89 18.54-6.15 25-7 15.21-1.91 21.88 9.55 31.7 21.32s16.3 38.11 30.51 43.85c17.45 7 37.33 0 53.78-9.12 11.65-6.47 25.33-26.74 35.59-35.25-3.85-13.22-8.07-28.53-11.92-41.75-3.94-13.56-8.27-27.76-18.41-37.58-9.13-8.8-21.7-12.8-33.9-16.25Q226.56 7.21 200.5 2.45c-11.45-2.09-23.36-3.82-34.63-.88C152.5 5.06 141.7 14.69 131.5 24L70.21 79.69c-5.56 5.06-11.41 10.58-13.15 17.9-1.67 7.06 2.73 20.4 8.54 24.77z"/></g><path fill="#58555d" d="M596.01 543.32s-34-5.24-49.39 19.45 45.27 37.79 45.27 37.79 31.06-19.07 4.12-57.24z"/><circle cx="513.7" cy="518.63" r="9.35" fill="#58555d"/><path fill="#f3ad55" d="M569.82 526.86s-17.58.37-16.46 10.1 30.68-.37 30.68-.37z"/><path fill="#58555d" d="M570.19 523.95v-14.37a9.35 9.35 0 100 14.37z"/><path d="M434 390.75s-146.82 70.09-55.91 210" opacity=".1"/><path fill="#f3ad55" d="M436 391.75s-146.82 70.09-55.91 210"/><path d="M328.44 433.75s18.33-41.15 62.11-54.62" opacity=".1"/><path fill="#f3ad55" d="M329.44 434.75s18.33-41.15 62.11-54.62M429.44 517.75s18.33-41.15 62.11-54.62"/><path d="M536.38 479.46s17.51 17.68 8.57 62.6" opacity=".1"/><path fill="#f3ad55" d="M535.03 479.86s17.51 17.68 8.57 62.6"/><path fill="#ef8343" d="M439.43 441.75l-7.11-49s-34.42 41.9-21.33 87.92z"/><path fill="#fbdca3" d="M411 480.66s-77.07-2.17 21.14-87.88z"/><path d="M60.8 292.27c24.1 21.76 52.71 40.61 59.86 130.2" opacity=".1"/><path fill="#f3ad55" d="M57.8 292.27c24.1 21.76 52.71 40.61 59.86 130.2"/><path d="M171.13 451.54c31.39 8.29 65.46 11.94 112.88 88.28" opacity=".1"/><path fill="#f3ad55" d="M168.5 452.92c31.39 8.29 65.46 11.94 112.88 88.28"/><path d="M296 555.75s26 38 53 41" opacity=".1"/><path fill="#f3ad55" d="M297 552.75s26 38 53 41"/><path fill="url(#e)" d="M941.5 724.91l-7.87-11.81L918 661.44l-6.43-22.85H905a10.27 10.27 0 00-4.94-10.39c0-.34.05-.68.05-1a10.36 10.36 0 00-2.3-6.52 10.47 10.47 0 00-1.6-1.6l-.07-.05q-.39-.31-.8-.58l-.23-.14c-.23-.14-.47-.27-.71-.4l-.31-.15-.68-.29-.36-.13c-.23-.08-.46-.15-.7-.21L892 617c-.25-.06-.51-.1-.77-.13l-.35-.05a10.51 10.51 0 00-1.15-.07 10.35 10.35 0 00-6.23 2.08 10.39 10.39 0 00-1.67-3 10.45 10.45 0 00-1.6-1.6l-.07-.05q-.39-.31-.8-.57l-.23-.14c-.23-.14-.46-.27-.7-.4l-.32-.15-.68-.29-.36-.13c-.23-.08-.46-.14-.7-.21l-.38-.1c-.25-.06-.51-.1-.77-.13l-.35-.05a9.79 9.79 0 00-2.36 0 10.39 10.39 0 00-1.08-11.4 10.47 10.47 0 00-1.44-1.47 10.39 10.39 0 00.64-13.75 10.47 10.47 0 00-1.6-1.6l-.07-.05q-.39-.31-.8-.57l-.23-.14c-.23-.14-.46-.27-.71-.4l-.31-.15-.68-.29-.36-.13c-.23-.08-.46-.15-.7-.21l-.38-.1c-.25-.06-.51-.1-.77-.13l-.35-.05a10.51 10.51 0 00-1.15-.07h-.82a10.46 10.46 0 00-.67-.95 10.47 10.47 0 00-1.6-1.6l-.07-.05q-.39-.31-.8-.57l-.23-.14c-.23-.14-.46-.27-.71-.4l-.31-.15-.68-.29-.36-.13c-.23-.08-.46-.15-.7-.21l-.38-.1c-.25-.06-.51-.1-.77-.13l-.35-.05a10.51 10.51 0 00-1.15-.07 10.34 10.34 0 00-8.92 5.07c-.25-.06-.51-.1-.77-.13l-.35-.05a10.51 10.51 0 00-1.15-.07h-.52a10.38 10.38 0 00-1.78-9.75 10.47 10.47 0 00-1.6-1.6l-.07-.05q-.39-.31-.8-.57l-.23-.14c-.23-.14-.46-.27-.71-.4l-.31-.15-.68-.29-.36-.13-.7-.21-.38-.1c-.25-.06-.51-.1-.77-.13l-.35-.05a10.51 10.51 0 00-1.15-.07 10.4 10.4 0 00-9 5.25l-.54-.38-.23-.14c-.23-.14-.46-.27-.71-.4l-.31-.15-.68-.29-.25-.1a10.4 10.4 0 002.25-15.12 10.46 10.46 0 00-1.6-1.6l-.07-.05q-.39-.31-.8-.57l-.23-.14c-.23-.14-.46-.27-.71-.4l-.31-.15-.68-.29-.36-.13-.7-.21-.38-.1c-.25-.06-.51-.1-.77-.13l-.35-.05a10.39 10.39 0 00-11.56 10.35v.29c-.24.06-.48.11-.71.18a10.38 10.38 0 00-7.25 11.09c0 .12 0 .23.05.35v.25l-.12-.07-.3-.13c-.23-.14-.46-.27-.71-.4l-.31-.15-.68-.29-.36-.13-.7-.21-.38-.1c-.25-.06-.51-.1-.77-.13l-.35-.05a10.39 10.39 0 00-11.49 11.5c0 .12 0 .23.05.35s.08.51.13.77.06.25.1.38.13.47.21.7l.13.36q.13.35.29.69l.15.31c.12.24.26.48.4.71l.14.23q.27.41.57.8l.06.07.15.18h-.19c-.25-.06-.51-.1-.77-.13l-.35-.05a10.51 10.51 0 00-1.15-.07 10.31 10.31 0 00-10.3 8.93h-.08l-.23-.14c-.23-.14-.46-.27-.71-.4l-.31-.15-.68-.29-.36-.13c-.23-.08-.46-.14-.7-.21l-.38-.1c-.25-.06-.51-.1-.77-.13l-.35-.05a10.39 10.39 0 00-11.49 11.49c0 .12 0 .23.05.35s.08.51.13.77.06.25.1.38.13.47.21.7l.13.36q.13.35.29.69l.15.31c.12.24.26.48.4.71l.14.23q.27.42.57.8l.05.07v.06a10.35 10.35 0 00-1.54 5.44 10.51 10.51 0 00.07 1.15c0 .12 0 .23.05.35s.08.51.13.77.06.25.1.38.13.47.21.7l.13.36q.13.35.29.69l.15.31c.12.24.26.48.4.71l.14.23a10.39 10.39 0 00-9.62 10.32 10.51 10.51 0 00.07 1.15c0 .12 0 .23.05.35s.08.51.13.77.06.24.09.37h-15.62L707.79 713l-9.29 12zM801.62 607.22l-.19-.32.48-.12c-.11.15-.2.29-.29.44zm48.81-9.67l.17-.28.38.08c-.18.07-.37.13-.55.21z" transform="translate(-139.5 -19.25)" opacity=".5"/><circle cx="606.76" cy="647.21" r="9.86" fill="#795548"/><path fill="#fff" d="M598.43 648.75a9.85 9.85 0 0116-7.68 9.85 9.85 0 10-13.85 13.85 9.81 9.81 0 01-2.15-6.17z" opacity=".05"/><circle cx="640.88" cy="649.48" r="9.86" fill="#795548"/><path fill="#fff" d="M632.5 651a9.85 9.85 0 0116-7.68 9.85 9.85 0 10-13.85 13.85 9.81 9.81 0 01-2.15-6.17z" opacity=".05"/><circle cx="660.59" cy="651" r="9.86" fill="#795548"/><path fill="#fff" d="M652.25 652.52a9.85 9.85 0 0116-7.68 9.85 9.85 0 10-13.85 13.85 9.81 9.81 0 01-2.15-6.17z" opacity=".05"/><circle cx="670.44" cy="647.21" r="9.86" fill="#795548"/><path fill="#fff" d="M662.1 648.75a9.85 9.85 0 0116-7.68 9.85 9.85 0 10-13.85 13.85 9.81 9.81 0 01-2.15-6.17z" opacity=".05"/><circle cx="747.01" cy="647.21" r="9.86" fill="#795548"/><path fill="#fff" d="M738.67 648.75a9.85 9.85 0 0116-7.68 9.85 9.85 0 10-13.85 13.85 9.81 9.81 0 01-2.15-6.17z" opacity=".05"/><circle cx="708.35" cy="646.45" r="9.86" fill="#795548"/><path fill="#fff" d="M700.01 647.97a9.85 9.85 0 0116-7.68 9.85 9.85 0 10-13.85 13.85 9.81 9.81 0 01-2.15-6.17z" opacity=".05"/><circle cx="621.17" cy="638.11" r="9.86" fill="#795548"/><path fill="#fff" d="M612.83 639.63a9.85 9.85 0 0116-7.68 9.85 9.85 0 10-13.83 13.8 9.81 9.81 0 01-2.17-6.12z" opacity=".05"/><circle cx="700.77" cy="617.64" r="9.86" fill="#795548"/><path fill="#fff" d="M692.43 619.16a9.85 9.85 0 0116-7.68 9.85 9.85 0 10-13.85 13.85 9.81 9.81 0 01-2.15-6.17z" opacity=".05"/><circle cx="670.44" cy="594.9" r="9.86" fill="#795548"/><circle cx="680.26" cy="579.74" r="9.86" fill="#795548"/><path fill="#fff" d="M662.1 596.42a9.85 9.85 0 0116-7.68 9.85 9.85 0 10-13.85 13.85 9.81 9.81 0 01-2.15-6.17z" opacity=".05"/><circle cx="638.6" cy="602.48" r="9.86" fill="#795548"/><path fill="#fff" d="M630.27 604a9.85 9.85 0 0116-7.68 9.85 9.85 0 10-13.85 13.85 9.81 9.81 0 01-2.15-6.17z" opacity=".05"/><circle cx="618.89" cy="616.88" r="9.86" fill="#795548"/><path fill="#fff" d="M610.55 618.4a9.85 9.85 0 0116-7.68 9.85 9.85 0 10-13.85 13.85 9.81 9.81 0 01-2.15-6.17z" opacity=".05"/><circle cx="678.02" cy="622.19" r="9.86" fill="#795548"/><path fill="#fff" d="M669.69 623.75a9.85 9.85 0 0116-7.68 9.85 9.85 0 10-13.85 13.85 9.81 9.81 0 01-2.15-6.17z" opacity=".05"/><circle cx="700.01" cy="575.19" r="9.86" fill="#795548"/><path fill="#fff" d="M691.67 576.75a9.85 9.85 0 0116-7.68 9.85 9.85 0 10-13.85 13.85 9.81 9.81 0 01-2.15-6.17z" opacity=".05"/><circle cx="675.75" cy="565.33" r="9.86" fill="#795548"/><path fill="#fff" d="M667.41 566.85a9.85 9.85 0 0116-7.68 9.85 9.85 0 10-13.85 13.85 9.81 9.81 0 01-2.15-6.17z" opacity=".05"/><circle cx="650.73" cy="567.61" r="9.86" fill="#795548"/><path fill="#fff" d="M642.39 569.13a9.85 9.85 0 0116-7.68 9.85 9.85 0 10-13.85 13.85 9.81 9.81 0 01-2.15-6.17z" opacity=".05"/><circle cx="650.73" cy="583.53" r="9.86" fill="#795548"/><path fill="#fff" d="M642.39 585.05a9.85 9.85 0 0116-7.68 9.85 9.85 0 10-13.85 13.85 9.81 9.81 0 01-2.15-6.17z" opacity=".05"/><circle cx="691.67" cy="608.54" r="9.86" fill="#795548"/><path fill="#fff" d="M683.33 610.06a9.85 9.85 0 0116-7.68 9.85 9.85 0 10-13.83 13.85 9.81 9.81 0 01-2.17-6.17z" opacity=".05"/><circle cx="703.04" cy="603.24" r="9.86" fill="#795548"/><path fill="#fff" d="M694.7 604.75a9.85 9.85 0 0116-7.68 9.85 9.85 0 10-13.85 13.85 9.81 9.81 0 01-2.15-6.17z" opacity=".05"/><circle cx="638.6" cy="637.35" r="9.86" fill="#795548"/><circle cx="638.6" cy="637.35" r="9.86" fill="#fff" opacity=".1"/><path fill="#fff" d="M630.27 638.87a9.85 9.85 0 0116-7.68 9.85 9.85 0 10-13.85 13.85 9.81 9.81 0 01-2.15-6.17z" opacity=".05"/><circle cx="669.69" cy="632.05" r="9.86" fill="#795548"/><circle cx="669.69" cy="632.05" r="9.86" fill="#fff" opacity=".1"/><path fill="#fff" d="M661.35 633.57a9.85 9.85 0 0116-7.68 9.85 9.85 0 10-13.85 13.86 9.81 9.81 0 01-2.15-6.18z" opacity=".05"/><circle cx="658.31" cy="641.14" r="9.86" fill="#795548"/><circle cx="658.31" cy="641.14" r="9.86" fill="#fff" opacity=".1"/><path fill="#fff" d="M649.98 642.66a9.85 9.85 0 0116-7.68 9.85 9.85 0 10-13.85 13.85 9.81 9.81 0 01-2.15-6.17z" opacity=".05"/><circle cx="621.17" cy="648.72" r="9.86" fill="#795548"/><circle cx="621.17" cy="648.72" r="9.86" fill="#fff" opacity=".1"/><path fill="#fff" d="M612.83 650.24a9.85 9.85 0 0116-7.68 9.85 9.85 0 10-13.85 13.85 9.81 9.81 0 01-2.15-6.17z" opacity=".05"/><circle cx="631.02" cy="641.14" r="9.86" fill="#795548"/><circle cx="631.02" cy="641.14" r="9.86" fill="#fff" opacity=".1"/><path fill="#fff" d="M622.68 642.66a9.85 9.85 0 0116-7.68 9.85 9.85 0 10-13.85 13.85 9.81 9.81 0 01-2.15-6.17z" opacity=".05"/><circle cx="631.02" cy="624.46" r="9.86" fill="#795548"/><circle cx="631.02" cy="624.46" r="9.86" fill="#fff" opacity=".1"/><path fill="#fff" d="M622.68 625.98a9.85 9.85 0 0116-7.68 9.85 9.85 0 10-13.85 13.85 9.81 9.81 0 01-2.15-6.17z" opacity=".05"/><circle cx="649.98" cy="609.3" r="9.86" fill="#795548"/><circle cx="649.98" cy="609.3" r="9.86" fill="#fff" opacity=".1"/><path fill="#fff" d="M641.64 610.82a9.85 9.85 0 0116-7.68 9.85 9.85 0 10-13.85 13.85 9.81 9.81 0 01-2.15-6.17z" opacity=".05"/><circle cx="683.33" cy="646.45" r="9.86" fill="#795548"/><circle cx="683.33" cy="646.45" r="9.86" fill="#fff" opacity=".1"/><path fill="#fff" d="M674.99 647.97a9.85 9.85 0 0116-7.68 9.85 9.85 0 10-13.85 13.85 9.81 9.81 0 01-2.15-6.17z" opacity=".05"/><circle cx="710.62" cy="616.13" r="9.86" fill="#795548"/><circle cx="710.62" cy="616.13" r="9.86" fill="#fff" opacity=".1"/><path fill="#fff" d="M702.28 617.65a9.85 9.85 0 0116-7.68 9.85 9.85 0 10-13.78 13.84 9.81 9.81 0 01-2.22-6.16z" opacity=".05"/><circle cx="710.62" cy="570.64" r="9.86" fill="#795548"/><circle cx="710.62" cy="570.64" r="9.86" fill="#fff" opacity=".1"/><path fill="#fff" d="M702.28 572.16a9.85 9.85 0 0116-7.68 9.85 9.85 0 10-13.78 13.85 9.81 9.81 0 01-2.22-6.17z" opacity=".05"/><circle cx="720.48" cy="589.59" r="9.86" fill="#795548"/><circle cx="720.48" cy="589.59" r="9.86" fill="#fff" opacity=".1"/><path fill="#fff" d="M712.14 591.11a9.85 9.85 0 0116-7.68 9.85 9.85 0 10-13.85 13.85 9.81 9.81 0 01-2.15-6.17z" opacity=".05"/><circle cx="730.33" cy="604" r="9.86" fill="#795548"/><circle cx="730.33" cy="604" r="9.86" fill="#fff" opacity=".1"/><path fill="#fff" d="M721.99 605.52a9.85 9.85 0 0116-7.68 9.85 9.85 0 10-13.85 13.85 9.81 9.81 0 01-2.15-6.17z" opacity=".05"/><circle cx="683.33" cy="587.32" r="9.86" fill="#795548"/><circle cx="683.33" cy="587.32" r="9.86" fill="#fff" opacity=".1"/><path fill="#fff" d="M674.99 588.84a9.85 9.85 0 0116-7.68 9.85 9.85 0 10-13.85 13.85 9.81 9.81 0 01-2.15-6.17z" opacity=".05"/><circle cx="653.77" cy="594.9" r="9.86" fill="#795548"/><circle cx="653.77" cy="594.9" r="9.86" fill="#fff" opacity=".1"/><path fill="#fff" d="M645.43 596.42a9.85 9.85 0 0116-7.68 9.85 9.85 0 10-13.85 13.85 9.81 9.81 0 01-2.15-6.17z" opacity=".05"/><circle cx="672.72" cy="583.53" r="9.86" fill="#795548"/><circle cx="672.72" cy="583.53" r="9.86" fill="#fff" opacity=".1"/><path fill="#fff" d="M664.38 585.05a9.85 9.85 0 0116-7.68 9.85 9.85 0 10-13.85 13.85 9.81 9.81 0 01-2.15-6.17z" opacity=".05"/><circle cx="690.15" cy="575.19" r="9.86" fill="#795548"/><circle cx="690.15" cy="575.19" r="9.86" fill="#fff" opacity=".1"/><path fill="#fff" d="M681.81 576.75a9.85 9.85 0 0116-7.68 9.85 9.85 0 10-13.85 13.85 9.81 9.81 0 01-2.15-6.17z" opacity=".05"/><circle cx="640.88" cy="583.53" r="9.86" fill="#795548"/><circle cx="640.88" cy="583.53" r="9.86" fill="#fff" opacity=".1"/><path fill="#fff" d="M632.5 585.05a9.85 9.85 0 0116-7.68 9.85 9.85 0 10-13.85 13.85 9.81 9.81 0 01-2.15-6.17z" opacity=".05"/><circle cx="675.75" cy="615.37" r="9.86" fill="#795548"/><circle cx="675.75" cy="615.37" r="9.86" fill="#fff" opacity=".1"/><path fill="#fff" d="M667.41 616.89a9.85 9.85 0 0116-7.68 9.85 9.85 0 10-13.85 13.85 9.81 9.81 0 01-2.15-6.17z" opacity=".05"/><circle cx="634.06" cy="614.61" r="9.86" fill="#795548"/><circle cx="634.06" cy="614.61" r="9.86" fill="#fff" opacity=".1"/><path fill="#fff" d="M625.72 616.13a9.85 9.85 0 0116-7.68 9.85 9.85 0 10-13.85 13.85 9.81 9.81 0 01-2.15-6.17z" opacity=".05"/><circle cx="697.73" cy="629.01" r="9.86" fill="#795548"/><circle cx="697.73" cy="629.01" r="9.86" fill="#fff" opacity=".1"/><path fill="#fff" d="M689.4 630.53a9.85 9.85 0 0116-7.68 9.85 9.85 0 10-13.85 13.85 9.81 9.81 0 01-2.15-6.17z" opacity=".05"/><circle cx="712.9" cy="634.32" r="9.86" fill="#795548"/><circle cx="712.9" cy="634.32" r="9.86" fill="#fff" opacity=".1"/><path fill="#fff" d="M704.56 635.84a9.85 9.85 0 0116-7.68 9.85 9.85 0 10-13.85 13.85 9.81 9.81 0 01-2.15-6.17z" opacity=".05"/><circle cx="725.78" cy="644.17" r="9.86" fill="#795548"/><circle cx="725.78" cy="644.17" r="9.86" fill="#fff" opacity=".1"/><path fill="#fff" d="M717.44 645.69a9.85 9.85 0 0116-7.68 9.85 9.85 0 10-13.85 13.85 9.81 9.81 0 01-2.15-6.17z" opacity=".05"/><circle cx="747.01" cy="631.29" r="9.86" fill="#795548"/><circle cx="747.01" cy="631.29" r="9.86" fill="#fff" opacity=".1"/><path fill="#fff" d="M738.67 632.81a9.85 9.85 0 0116-7.68 9.85 9.85 0 10-13.85 13.85 9.81 9.81 0 01-2.15-6.17z" opacity=".05"/><circle cx="735.64" cy="619.92" r="9.86" fill="#795548"/><circle cx="735.64" cy="619.92" r="9.86" fill="#fff" opacity=".1"/><path fill="#fff" d="M727.3 621.44a9.85 9.85 0 0116-7.68 9.85 9.85 0 10-13.8 13.84 9.81 9.81 0 01-2.2-6.16z" opacity=".05"/><circle cx="665.89" cy="557.75" r="9.86" fill="#795548"/><circle cx="665.89" cy="557.75" r="9.86" fill="#fff" opacity=".1"/><path fill="#fff" d="M657.56 559.27a9.85 9.85 0 0116-7.68 9.85 9.85 0 10-13.85 13.85 9.81 9.81 0 01-2.15-6.17z" opacity=".05"/><circle cx="626.47" cy="601.72" r="9.86" fill="#795548"/><circle cx="626.47" cy="601.72" r="9.86" fill="#fff" opacity=".1"/><path fill="#fff" d="M618.14 603.24a9.85 9.85 0 0116-7.68 9.85 9.85 0 10-13.85 13.85 9.81 9.81 0 01-2.15-6.17z" opacity=".05"/><circle cx="611.31" cy="629.77" r="9.86" fill="#795548"/><circle cx="611.31" cy="629.77" r="9.86" fill="#fff" opacity=".1"/><path fill="#fff" d="M602.97 631.29a9.85 9.85 0 0116-7.68 9.85 9.85 0 10-13.85 13.85 9.81 9.81 0 01-2.15-6.17z" opacity=".05"/><circle cx="658.31" cy="619.92" r="9.86" fill="#795548"/><circle cx="658.31" cy="619.92" r="9.86" fill="#fff" opacity=".1"/><path fill="#fff" d="M649.98 621.44a9.85 9.85 0 0116-7.68 9.85 9.85 0 10-13.85 13.85 9.81 9.81 0 01-2.15-6.17z" opacity=".05"/><circle cx="659.83" cy="579.74" r="9.86" fill="#795548"/><circle cx="659.83" cy="579.74" r="9.86" fill="#fff" opacity=".1"/><path fill="#fff" d="M651.5 581.26a9.85 9.85 0 0116-7.68 9.85 9.85 0 10-13.85 13.85 9.81 9.81 0 01-2.15-6.17z" opacity=".05"/><circle cx="663.62" cy="569.12" r="9.86" fill="#795548"/><circle cx="663.62" cy="569.12" r="9.86" fill="#fff" opacity=".1"/><path fill="#fff" d="M655.28 570.64a9.85 9.85 0 0116-7.68 9.85 9.85 0 10-13.78 13.85 9.81 9.81 0 01-2.22-6.17z" opacity=".05"/><circle cx="650.73" cy="631.29" r="9.86" fill="#795548"/><path fill="#fff" d="M642.39 632.81a9.85 9.85 0 0116-7.68 9.85 9.85 0 10-13.85 13.85 9.81 9.81 0 01-2.15-6.17z" opacity=".05"/><circle cx="625.72" cy="590.35" r="9.86" fill="#795548"/><path fill="#fff" d="M617.38 591.87a9.85 9.85 0 0116-7.68 9.85 9.85 0 10-13.85 13.85 9.81 9.81 0 01-2.15-6.17z" opacity=".05"/><circle cx="637.85" cy="619.16" r="9.86" fill="#795548"/><path fill="#fff" d="M629.5 620.68a9.85 9.85 0 0116-7.68 9.85 9.85 0 10-13.85 13.85 9.81 9.81 0 01-2.15-6.17z" opacity=".05"/><circle cx="673.48" cy="547.9" r="9.86" fill="#795548"/><path fill="#fff" d="M665.14 549.42a9.85 9.85 0 0116-7.68 9.85 9.85 0 10-13.85 13.85 9.81 9.81 0 01-2.15-6.17z" opacity=".05"/><circle cx="672.72" cy="569.88" r="9.86" fill="#795548"/><path fill="#fff" d="M664.38 571.4a9.85 9.85 0 0116-7.68 9.85 9.85 0 10-13.85 13.85 9.81 9.81 0 01-2.15-6.17z" opacity=".05"/><circle cx="690.15" cy="562.3" r="9.86" fill="#795548"/><path fill="#fff" d="M681.81 563.82a9.85 9.85 0 0116-7.68 9.85 9.85 0 10-13.85 13.85 9.81 9.81 0 01-2.15-6.17z" opacity=".05"/><circle cx="682.57" cy="604.75" r="9.86" fill="#795548"/><circle cx="687.92" cy="600.29" r="9.86" fill="#795548"/><path fill="#fff" d="M674.23 606.27a9.85 9.85 0 0116-7.68 9.85 9.85 0 10-13.85 13.85 9.81 9.81 0 01-2.15-6.17z" opacity=".05"/><circle cx="677.27" cy="632.05" r="9.86" fill="#795548"/><path fill="#fff" d="M668.93 633.57a9.85 9.85 0 0116-7.68 9.85 9.85 0 10-13.83 13.86 9.81 9.81 0 01-2.17-6.18z" opacity=".05"/><circle cx="681.06" cy="612.34" r="9.86" fill="#795548"/><path fill="#fff" d="M672.72 613.86a9.85 9.85 0 0116-7.68 9.85 9.85 0 10-13.85 13.85 9.81 9.81 0 01-2.15-6.17z" opacity=".05"/><circle cx="698.49" cy="595.66" r="9.86" fill="#795548"/><circle cx="750.23" cy="617.96" r="9.86" fill="#795548"/><path fill="#fff" d="M690.15 597.18a9.85 9.85 0 0116-7.68 9.85 9.85 0 10-13.85 13.85 9.81 9.81 0 01-2.15-6.17z" opacity=".05"/><circle cx="688.64" cy="622.19" r="9.86" fill="#795548"/><path fill="#fff" d="M680.3 623.75a9.85 9.85 0 0116-7.68 9.85 9.85 0 10-13.8 13.81 9.81 9.81 0 01-2.2-6.13z" opacity=".05"/><circle cx="719.72" cy="575.19" r="9.86" fill="#795548"/><path fill="#fff" d="M711.38 576.75a9.85 9.85 0 0116-7.68 9.85 9.85 0 10-13.85 13.85 9.81 9.81 0 01-2.15-6.17z" opacity=".05"/><circle cx="712.14" cy="589.59" r="9.86" fill="#795548"/><path fill="#fff" d="M703.8 591.11a9.85 9.85 0 0116-7.68 9.85 9.85 0 10-13.85 13.85 9.81 9.81 0 01-2.15-6.17z" opacity=".05"/><circle cx="718.2" cy="603.24" r="9.86" fill="#795548"/><path fill="#fff" d="M709.86 604.75a9.85 9.85 0 0116-7.68 9.85 9.85 0 10-13.85 13.85 9.81 9.81 0 01-2.15-6.17z" opacity=".05"/><circle cx="733.36" cy="631.29" r="9.86" fill="#795548"/><path fill="#fff" d="M725.03 632.81a9.85 9.85 0 0116-7.68 9.85 9.85 0 10-13.85 13.85 9.81 9.81 0 01-2.15-6.17z" opacity=".05"/><circle cx="745.49" cy="608.54" r="9.86" fill="#795548"/><circle cx="640.23" cy="595.16" r="9.86" fill="#795548"/><path fill="#fff" d="M737.15 610.06a9.85 9.85 0 0116-7.68 9.85 9.85 0 10-13.85 13.85 9.81 9.81 0 01-2.15-6.17z" opacity=".05"/><circle cx="720.48" cy="619.16" r="9.86" fill="#795548"/><path fill="#fff" d="M712.14 620.68a9.85 9.85 0 0116-7.68 9.85 9.85 0 10-13.85 13.85 9.81 9.81 0 01-2.15-6.17z" opacity=".05"/><circle cx="721.99" cy="631.29" r="9.86" fill="#795548"/><path fill="#fff" d="M713.65 632.81a9.85 9.85 0 0116-7.68 9.85 9.85 0 10-13.85 13.85 9.81 9.81 0 01-2.15-6.17z" opacity=".05"/><circle cx="693.19" cy="639.63" r="9.86" fill="#795548"/><path fill="#fff" d="M684.85 641.15a9.85 9.85 0 0116-7.68A9.85 9.85 0 10687 647.32a9.81 9.81 0 01-2.15-6.17z" opacity=".05"/><circle cx="660.59" cy="607.79" r="9.86" fill="#795548"/><path fill="#fff" d="M652.25 609.31a9.85 9.85 0 0116-7.68 9.85 9.85 0 10-13.85 13.85 9.81 9.81 0 01-2.15-6.17z" opacity=".05"/><circle cx="670.44" cy="607.03" r="9.86" fill="#795548"/><path fill="#fff" d="M662.1 608.55a9.85 9.85 0 0116-7.68 9.85 9.85 0 10-13.82 13.88 9.81 9.81 0 01-2.18-6.2z" opacity=".05"/><circle cx="649.98" cy="619.16" r="9.86" fill="#795548"/><path fill="#fff" d="M641.64 620.68a9.85 9.85 0 0116-7.68 9.85 9.85 0 10-13.85 13.85 9.81 9.81 0 01-2.15-6.17z" opacity=".05"/><circle cx="735.64" cy="644.17" r="9.86" fill="#795548"/><circle cx="735.64" cy="644.17" r="9.86" fill="#fff" opacity=".1"/><path fill="#fff" d="M727.3 645.69a9.85 9.85 0 0116-7.68 9.85 9.85 0 10-13.8 13.85 9.81 9.81 0 01-2.2-6.17z" opacity=".05"/><circle cx="725.78" cy="608.54" r="9.86" fill="#795548"/><circle cx="725.78" cy="608.54" r="9.86" fill="#fff" opacity=".1"/><path fill="#fff" d="M717.44 610.06a9.85 9.85 0 0116-7.68 9.85 9.85 0 10-13.85 13.85 9.81 9.81 0 01-2.15-6.17z" opacity=".05"/><circle cx="697.73" cy="583.53" r="9.86" fill="#795548"/><circle cx="697.73" cy="583.53" r="9.86" fill="#fff" opacity=".1"/><path fill="#fff" d="M689.4 585.05a9.85 9.85 0 0116-7.68 9.85 9.85 0 10-13.85 13.85 9.81 9.81 0 01-2.15-6.17z" opacity=".05"/><path fill="#f55f44" d="M789.92 696.13H572.39l23.19-76.76h171.15l23.19 76.76z"/><path fill="#fff" opacity=".05" d="M602.11 625.9l158.41.33-1.3-6.53-163.64-.33-23.19 76.76h8.5l21.22-70.23z"/><path fill="#6574cd" d="M795.47 701.03H565.53l9.14-11.76h212.96l7.84 11.76z"/><path fill="#f55f44" d="M795.47 701.03H565.53l9.14-11.76h212.96l7.84 11.76z"/><path opacity=".1" d="M795.47 701.03H565.53l9.14-11.76h212.96l7.84 11.76z"/><path opacity=".05" d="M759.5 618.75l19.67 70.52 9.33.48-22-71h-7z"/></svg>